<svg width="43" height="43" viewBox="0 0 43 43" fill="none" xmlns="http://www.w3.org/2000/svg">
<rect x="0.989746" y="0.203857" width="41.87" height="41.87" rx="7.21897" fill="#1CD7AF"/>
<g clip-path="url(#clip0_852_6035)">
<path d="M31.9571 27.8994L31.0669 22.8798C31.4337 22.5486 31.7107 22.1299 31.8721 21.6628C32.0335 21.1957 32.074 20.6953 31.99 20.2083C31.9059 19.7213 31.7 19.2635 31.3913 18.8775C31.0826 18.4916 30.6813 18.19 30.2247 18.0009C29.8883 16.0752 28.8926 14.3265 27.4081 13.0546C25.9237 11.7827 24.0431 11.0667 22.0886 11.0295C20.1341 10.9922 18.2276 11.636 16.6958 12.8505C15.164 14.065 14.1024 15.7744 13.6929 17.6859L13.0814 21.139C13.0814 21.139 14.4349 21.139 14.5789 21.128C16.0094 21.0847 17.415 20.7431 18.7057 20.1249C18.6074 20.3071 18.5559 20.5109 18.5558 20.7179C18.5542 20.9632 18.6241 21.2036 18.7568 21.4098C18.8896 21.6161 19.0796 21.7792 19.3035 21.8794C19.5274 21.9795 19.7756 22.0122 20.0179 21.9736C20.2601 21.9351 20.4859 21.8268 20.6676 21.662C20.8493 21.4973 20.9792 21.2832 21.0413 21.0459C21.1034 20.8086 21.0951 20.5584 21.0173 20.3257C20.9396 20.0931 20.7958 19.8881 20.6035 19.7358C20.4112 19.5835 20.1788 19.4904 19.9345 19.468C22.2796 18.1102 24.1775 16.0976 25.3954 13.677C26.2895 14.2119 27.0468 14.9478 27.6071 15.8262C28.1674 16.7047 28.5155 17.7015 28.6236 18.7378L28.6893 19.3661L29.3109 19.4781C29.6177 19.5381 29.8914 19.7098 30.079 19.9599C30.2666 20.2101 30.3548 20.5209 30.3265 20.8323C30.2982 21.1436 30.1555 21.4335 29.9259 21.6457C29.6963 21.8579 29.3961 21.9775 29.0835 21.9812H28.1158L27.9305 22.5067C27.1582 24.6948 24.5608 27.0345 21.9247 27.0345C20.6526 26.9329 19.432 26.4874 18.3936 25.7456C17.3551 25.0039 16.5379 23.9938 16.0292 22.8234H12.7841L11.8729 27.9735C11.7921 28.3697 11.8004 28.7788 11.8972 29.1714C11.994 29.5639 12.1768 29.93 12.4325 30.2432C12.6882 30.5563 13.0104 30.8087 13.3756 30.9821C13.7408 31.1555 14.1401 31.2454 14.5444 31.2455H19.398V28.2203C20.2015 28.5434 21.0586 28.7126 21.9247 28.7189C22.7906 28.7125 23.6477 28.5437 24.4513 28.2211V31.2455H29.3041C29.7206 31.2468 30.1318 31.152 30.5058 30.9686C30.8797 30.7851 31.2063 30.5179 31.4602 30.1877C31.7114 29.8691 31.8866 29.4974 31.9727 29.1009C32.0588 28.7044 32.0535 28.2935 31.9571 27.8994Z" fill="#FDFBF2"/>
<path d="M24.0302 21.9805C24.7279 21.9805 25.2935 21.4149 25.2935 20.7172C25.2935 20.0195 24.7279 19.4539 24.0302 19.4539C23.3325 19.4539 22.7668 20.0195 22.7668 20.7172C22.7668 21.4149 23.3325 21.9805 24.0302 21.9805Z" fill="#FDFBF2"/>
</g>
<defs>
<clipPath id="clip0_852_6035">
<rect width="20.2131" height="20.2131" fill="white" transform="translate(11.8181 11.0323)"/>
</clipPath>
</defs>
</svg>
