<svg width="39" height="30" viewBox="0 0 39 30" fill="none" xmlns="http://www.w3.org/2000/svg">
<g clip-path="url(#clip0_871_580)">
<path d="M38.2483 4.95115C39.396 4.15427 39.2132 2.97068 37.8319 2.30857C36.4507 1.64646 34.3991 1.75193 33.2515 2.5488L19.4999 12.0703L5.74834 2.5488C4.60069 1.75193 2.54912 1.64646 1.16787 2.30857C-0.213376 2.97068 -0.396189 4.15427 0.751467 4.95115L15.2647 15L0.751467 25.0488C-0.396189 25.8457 -0.213376 27.0293 1.16787 27.6914C2.54912 28.3535 4.60069 28.248 5.74834 27.4511L19.4999 17.9297L33.2515 27.4511C34.3991 28.248 36.4507 28.3535 37.8319 27.6914C39.2132 27.0293 39.396 25.8457 38.2483 25.0488L23.7351 15L38.2483 4.95115Z" fill="black"/>
</g>
<defs>
<clipPath id="clip0_871_580">
<rect width="39" height="30" fill="white"/>
</clipPath>
</defs>
</svg>
